<mxfile host="65bd71144e">
    <diagram id="zF4HkcEya-mMaRAW4qBr" name="第 1 页">
        <mxGraphModel dx="1236" dy="669" grid="1" gridSize="10" guides="1" tooltips="1" connect="1" arrows="1" fold="1" page="1" pageScale="1" pageWidth="2339" pageHeight="3300" math="0" shadow="0">
            <root>
                <mxCell id="0"/>
                <mxCell id="1" parent="0"/>
                <mxCell id="16" value="前端技术" style="text;html=1;align=center;verticalAlign=middle;resizable=0;points=[];autosize=1;strokeColor=none;fillColor=none;fontStyle=1;fontSize=18;" parent="1" vertex="1">
                    <mxGeometry x="1155" y="25" width="90" height="30" as="geometry"/>
                </mxCell>
                <mxCell id="20" value="" style="shape=ext;double=1;rounded=0;whiteSpace=wrap;html=1;fontSize=18;" parent="1" vertex="1">
                    <mxGeometry x="1060" y="130" width="280" height="220" as="geometry"/>
                </mxCell>
                <mxCell id="21" value="渲染层" style="text;html=1;align=center;verticalAlign=middle;resizable=0;points=[];autosize=1;strokeColor=none;fillColor=none;fontSize=12;" parent="1" vertex="1">
                    <mxGeometry x="1175" y="100" width="50" height="20" as="geometry"/>
                </mxCell>
                <mxCell id="22" value="核心：React 自研SSR" style="shape=ext;double=1;rounded=1;whiteSpace=wrap;html=1;fontSize=12;" parent="1" vertex="1">
                    <mxGeometry x="1080" y="150" width="240" height="30" as="geometry"/>
                </mxCell>
                <mxCell id="24" value="css：Tailwindcss+Less" style="shape=ext;double=1;rounded=1;whiteSpace=wrap;html=1;fontSize=12;" parent="1" vertex="1">
                    <mxGeometry x="1080" y="200" width="240" height="30" as="geometry"/>
                </mxCell>
                <mxCell id="25" value="组件库" style="shape=ext;double=1;rounded=1;whiteSpace=wrap;html=1;fontSize=12;" parent="1" vertex="1">
                    <mxGeometry x="1080" y="250" width="240" height="30" as="geometry"/>
                </mxCell>
                <mxCell id="26" value="SVG管理：Iconfont" style="shape=ext;double=1;rounded=1;whiteSpace=wrap;html=1;fontSize=12;" parent="1" vertex="1">
                    <mxGeometry x="1080" y="300" width="240" height="30" as="geometry"/>
                </mxCell>
                <mxCell id="28" value="" style="shape=ext;double=1;rounded=0;whiteSpace=wrap;html=1;fontSize=12;" parent="1" vertex="1">
                    <mxGeometry x="790" y="130" width="250" height="220" as="geometry"/>
                </mxCell>
                <mxCell id="29" value="私有Npm搭建、CDN" style="shape=ext;double=1;rounded=0;whiteSpace=wrap;html=1;fontSize=12;" parent="1" vertex="1">
                    <mxGeometry x="790" y="70" width="250" height="30" as="geometry"/>
                </mxCell>
                <mxCell id="30" value="基于Arco改版的基础组件库" style="shape=ext;double=1;rounded=0;whiteSpace=wrap;html=1;fontSize=12;" parent="1" vertex="1">
                    <mxGeometry x="803" y="140" width="224" height="40" as="geometry"/>
                </mxCell>
                <mxCell id="31" value="业务组件库" style="shape=ext;double=1;rounded=0;whiteSpace=wrap;html=1;fontSize=12;" parent="1" vertex="1">
                    <mxGeometry x="803" y="190" width="224" height="40" as="geometry"/>
                </mxCell>
                <mxCell id="32" value="图表组件库" style="shape=ext;double=1;rounded=0;whiteSpace=wrap;html=1;fontSize=12;" parent="1" vertex="1">
                    <mxGeometry x="803" y="240" width="224" height="40" as="geometry"/>
                </mxCell>
                <mxCell id="36" value="" style="edgeStyle=elbowEdgeStyle;elbow=horizontal;endArrow=classic;html=1;fontSize=12;exitX=0;exitY=0.5;exitDx=0;exitDy=0;entryX=1.006;entryY=0.593;entryDx=0;entryDy=0;entryPerimeter=0;" parent="1" source="25" target="28" edge="1">
                    <mxGeometry width="50" height="50" relative="1" as="geometry">
                        <mxPoint x="1020" y="230" as="sourcePoint"/>
                        <mxPoint x="1070" y="180" as="targetPoint"/>
                    </mxGeometry>
                </mxCell>
                <mxCell id="37" value="" style="edgeStyle=elbowEdgeStyle;elbow=horizontal;endArrow=classic;html=1;fontSize=12;exitX=0.5;exitY=0;exitDx=0;exitDy=0;entryX=0.5;entryY=1;entryDx=0;entryDy=0;" parent="1" source="28" target="29" edge="1">
                    <mxGeometry width="50" height="50" relative="1" as="geometry">
                        <mxPoint x="1070" y="240" as="sourcePoint"/>
                        <mxPoint x="1120" y="190" as="targetPoint"/>
                    </mxGeometry>
                </mxCell>
                <mxCell id="39" value="" style="shape=ext;double=1;rounded=0;whiteSpace=wrap;html=1;fontSize=12;" parent="1" vertex="1">
                    <mxGeometry x="600" y="130" width="160" height="320" as="geometry"/>
                </mxCell>
                <mxCell id="40" value="" style="edgeStyle=elbowEdgeStyle;elbow=horizontal;endArrow=classic;html=1;fontSize=12;exitX=-0.002;exitY=0.426;exitDx=0;exitDy=0;exitPerimeter=0;entryX=0.999;entryY=0.426;entryDx=0;entryDy=0;entryPerimeter=0;" parent="1" source="28" target="39" edge="1">
                    <mxGeometry width="50" height="50" relative="1" as="geometry">
                        <mxPoint x="720" y="210" as="sourcePoint"/>
                        <mxPoint x="770" y="160" as="targetPoint"/>
                    </mxGeometry>
                </mxCell>
                <mxCell id="42" value="Node BFF" style="text;html=1;align=center;verticalAlign=middle;resizable=0;points=[];autosize=1;strokeColor=none;fillColor=none;fontSize=12;" parent="1" vertex="1">
                    <mxGeometry x="1165" y="370" width="70" height="20" as="geometry"/>
                </mxCell>
                <mxCell id="43" value="" style="shape=ext;double=1;rounded=0;whiteSpace=wrap;html=1;fontSize=12;" parent="1" vertex="1">
                    <mxGeometry x="1060" y="410" width="280" height="280" as="geometry"/>
                </mxCell>
                <mxCell id="45" value="核心：Nest.js" style="shape=ext;double=1;rounded=1;whiteSpace=wrap;html=1;fontSize=12;" parent="1" vertex="1">
                    <mxGeometry x="1080" y="430" width="240" height="30" as="geometry"/>
                </mxCell>
                <mxCell id="47" value="接口转发" style="shape=ext;double=1;rounded=1;whiteSpace=wrap;html=1;fontSize=12;" parent="1" vertex="1">
                    <mxGeometry x="1080" y="470" width="240" height="30" as="geometry"/>
                </mxCell>
                <mxCell id="48" value="安全：XXS、CSRF、源码安全" style="shape=ext;double=1;rounded=1;whiteSpace=wrap;html=1;fontSize=12;" parent="1" vertex="1">
                    <mxGeometry x="1080" y="510" width="240" height="30" as="geometry"/>
                </mxCell>
                <mxCell id="50" value="单元测试" style="shape=ext;double=1;rounded=1;whiteSpace=wrap;html=1;fontSize=12;" parent="1" vertex="1">
                    <mxGeometry x="1080" y="550" width="240" height="30" as="geometry"/>
                </mxCell>
                <mxCell id="51" value="异常处理" style="shape=ext;double=1;rounded=1;whiteSpace=wrap;html=1;fontSize=12;" parent="1" vertex="1">
                    <mxGeometry x="1080" y="590" width="240" height="30" as="geometry"/>
                </mxCell>
                <mxCell id="52" value="文档服务" style="shape=ext;double=1;rounded=0;whiteSpace=wrap;html=1;fontSize=12;" parent="1" vertex="1">
                    <mxGeometry x="803" y="290" width="224" height="40" as="geometry"/>
                </mxCell>
                <mxCell id="53" value="工程能力" style="text;html=1;align=center;verticalAlign=middle;resizable=0;points=[];autosize=1;strokeColor=none;fillColor=none;fontSize=12;" parent="1" vertex="1">
                    <mxGeometry x="650" y="100" width="60" height="20" as="geometry"/>
                </mxCell>
                <mxCell id="54" value="构建：Rollup、Webpack" style="shape=ext;double=1;rounded=0;whiteSpace=wrap;html=1;fontSize=12;" parent="1" vertex="1">
                    <mxGeometry x="610" y="140" width="140" height="35" as="geometry"/>
                </mxCell>
                <mxCell id="55" value="部署" style="shape=ext;double=1;rounded=0;whiteSpace=wrap;html=1;fontSize=12;" parent="1" vertex="1">
                    <mxGeometry x="610" y="190" width="140" height="35" as="geometry"/>
                </mxCell>
                <mxCell id="56" value="灰度" style="shape=ext;double=1;rounded=0;whiteSpace=wrap;html=1;fontSize=12;" parent="1" vertex="1">
                    <mxGeometry x="610" y="242.5" width="140" height="35" as="geometry"/>
                </mxCell>
                <mxCell id="57" value="权限处理" style="shape=ext;double=1;rounded=1;whiteSpace=wrap;html=1;fontSize=12;" parent="1" vertex="1">
                    <mxGeometry x="1080" y="630" width="240" height="30" as="geometry"/>
                </mxCell>
                <mxCell id="61" value="监控、告警" style="shape=ext;double=1;rounded=0;whiteSpace=wrap;html=1;fontSize=12;" parent="1" vertex="1">
                    <mxGeometry x="610" y="297.5" width="140" height="35" as="geometry"/>
                </mxCell>
                <mxCell id="62" value="日志" style="shape=ext;double=1;rounded=0;whiteSpace=wrap;html=1;fontSize=12;" parent="1" vertex="1">
                    <mxGeometry x="610" y="350" width="140" height="35" as="geometry"/>
                </mxCell>
                <mxCell id="63" value="配置中心" style="shape=ext;double=1;rounded=0;whiteSpace=wrap;html=1;fontSize=12;" parent="1" vertex="1">
                    <mxGeometry x="610" y="400" width="140" height="35" as="geometry"/>
                </mxCell>
                <mxCell id="64" value="" style="edgeStyle=elbowEdgeStyle;elbow=horizontal;endArrow=classic;html=1;fontSize=12;exitX=-0.002;exitY=0.554;exitDx=0;exitDy=0;exitPerimeter=0;entryX=1;entryY=0.75;entryDx=0;entryDy=0;" parent="1" source="43" target="39" edge="1">
                    <mxGeometry width="50" height="50" relative="1" as="geometry">
                        <mxPoint x="799.5" y="233.72000000000003" as="sourcePoint"/>
                        <mxPoint x="769.8399999999999" y="276.31999999999994" as="targetPoint"/>
                    </mxGeometry>
                </mxCell>
                <mxCell id="65" value="" style="shape=ext;double=1;rounded=0;whiteSpace=wrap;html=1;fontSize=12;" parent="1" vertex="1">
                    <mxGeometry x="1390" y="90" width="398" height="530" as="geometry"/>
                </mxCell>
                <mxCell id="66" value="前端规范" style="text;html=1;align=center;verticalAlign=middle;resizable=0;points=[];autosize=1;strokeColor=none;fillColor=none;fontStyle=1;fontSize=18;" parent="1" vertex="1">
                    <mxGeometry x="1528" y="25" width="90" height="30" as="geometry"/>
                </mxCell>
                <mxCell id="67" value="JS：Eslint、Prettier" style="shape=ext;double=1;rounded=1;whiteSpace=wrap;html=1;fontSize=12;" parent="1" vertex="1">
                    <mxGeometry x="1418" y="175" width="340" height="35" as="geometry"/>
                </mxCell>
                <mxCell id="72" value="偏向于细腻的使用代码、工程能力来约束矫正开发代码" style="text;strokeColor=none;fillColor=none;html=1;fontSize=12;fontStyle=1;verticalAlign=middle;align=center;" parent="1" vertex="1">
                    <mxGeometry x="1388" y="110" width="370" height="50" as="geometry"/>
                </mxCell>
                <mxCell id="73" value="CSS：Stylelint、Prettier、Tailwindcss" style="shape=ext;double=1;rounded=1;whiteSpace=wrap;html=1;fontSize=12;" parent="1" vertex="1">
                    <mxGeometry x="1418" y="230" width="340" height="40" as="geometry"/>
                </mxCell>
                <mxCell id="74" value="风格：Airbnb" style="shape=ext;double=1;rounded=1;whiteSpace=wrap;html=1;fontSize=12;" parent="1" vertex="1">
                    <mxGeometry x="1418" y="290" width="340" height="37.5" as="geometry"/>
                </mxCell>
                <mxCell id="75" value="中文排版：AutoCorrent" style="shape=ext;double=1;rounded=1;whiteSpace=wrap;html=1;fontSize=12;" parent="1" vertex="1">
                    <mxGeometry x="1418" y="350" width="340" height="40" as="geometry"/>
                </mxCell>
                <mxCell id="76" value="编辑器：VSCODE" style="shape=ext;double=1;rounded=1;whiteSpace=wrap;html=1;fontSize=12;" parent="1" vertex="1">
                    <mxGeometry x="1418" y="410" width="340" height="40" as="geometry"/>
                </mxCell>
                <mxCell id="77" value="Node版本：v16.14.2" style="shape=ext;double=1;rounded=1;whiteSpace=wrap;html=1;fontSize=12;" vertex="1" parent="1">
                    <mxGeometry x="1419" y="470" width="340" height="40" as="geometry"/>
                </mxCell>
            </root>
        </mxGraphModel>
    </diagram>
</mxfile>
